<?xml version="1.0" encoding="UTF-8"?>
<svg id="Capa_1" xmlns="http://www.w3.org/2000/svg" viewBox="0 0 800 151.36">
  <defs>
    <style>
      .cls-1 {
        fill: #324cff;
      }
    </style>
  </defs>
  <path class="cls-1" d="M103.83,15.81C38.47,86.15,19.54,136.25,19.54,136.25c14.19,16.47,38.39,15.09,38.39,15.09,25.5.8,41.12-15.02,41.12-15.02,31.69-31.92,27.79-122.57,27.79-122.57-6.41-13.94-23.01,2.07-23.01,2.07Z"/>
  <path class="cls-1" d="M3,70.82s-10,19.99,6.51,53.64L53.37,28.05c-.5.18-39.56,13.81-50.37,42.77Z"/>
  <path class="cls-1" d="M606.8,129.53c-2.7.23-5.36.23-7.99-.48-4.39-1.14-7.04-3.89-7.84-8.37-.43-2.5-.29-4.96.16-7.41,1.25-6.96,2.56-13.92,3.87-20.88,2.33-12.65,4.7-25.32,7.05-37.97.08-.57.24-1.14.37-1.73h34.69c1.41-2.89,7.09-17.04,7.15-17.88h-32.78c-2.17,0-4.33.04-6.66-.02,2.29-11.69,4.55-23.25,6.8-34.78h-.19c-.18.14-.34.29-.53.36-2.51,1.27-5.02,2.5-7.55,3.75-5.4,2.66-10.79,5.35-16.21,7.99-.61.32-.89.7-.93,1.34-.08.68-.19,1.34-.3,2.02-.89,5.57-1.76,11.15-2.65,16.72-.83,5.19-1.66,10.37-2.47,15.54-.88,5.55-1.76,11.1-2.62,16.63-.83,5.16-1.63,10.33-2.44,15.47-.91,5.64-1.8,11.26-2.67,16.88-.84,5.16-1.64,10.33-2.46,15.47-.31,1.84-.7,3.66-.81,5.51-.22,3.52.1,6.99.93,10.39,1.94,7.94,6.73,13.4,14.43,16.24,3.77,1.41,7.69,2,11.68,2.14,3.67.14,7.3-.09,10.92-.63,1.89-.25,3.8-.63,5.74-.98,1.36-5.78,2.69-11.51,4.08-17.35-.43.09-.67.14-.91.2-3.23.86-6.52,1.57-9.85,1.84Z"/>
  <path class="cls-1" d="M798.32,39.4c-.8-.07-1.28.23-1.73.91-3.2,4.89-6.45,9.76-9.67,14.61-.17.23-.34.43-.59.77-.13-.41-.23-.68-.32-.96-.83-2.73-1.64-5.44-2.49-8.14-.64-2.09-1.29-4.16-1.93-6.28-.1-.34-.2-.68-.66-.68-.91.02-1.81.02-2.8.02-1.59,6.85-3.16,13.69-4.74,20.61h3.1c1.12-4.39,2.23-8.78,3.34-13.17.08-.02.16-.02.24-.02,1.32,4.53,2.62,9.05,3.97,13.63.71,0,1.4-.02,2.09.02.63.02,1.04-.18,1.41-.75,2.65-3.98,5.36-7.94,8.07-11.92.16-.25.36-.5.53-.75.08.02.16.02.2.07-.35,4.28-.69,8.58-1.03,12.92h3.21c.01-.2.04-.32.08-.43.41-5.85.8-11.67,1.19-17.49.03-.27.14-.55.2-.84v-2.16c-.54.04-1.11.11-1.68.04Z"/>
  <path class="cls-1" d="M531.8,30.87c-5.16-.41-10.31-.32-15.42.32-7.07.91-13.85,2.84-20.36,5.73-8.29,3.71-15.7,8.76-22.59,14.63-5.79,4.96-10.84,10.56-14.79,17.09-7.23,11.97-10.88,24.84-9.92,38.9.36,5.37,1.5,10.58,3.56,15.56,4.82,11.56,12.98,19.63,24.96,23.64,1.63.55,3.32,1.05,5.01,1.25,4.2.48,8.4.41,12.59-.11,6.42-.82,12.47-2.77,18.07-6.03,8.47-4.93,14.77-11.92,19.03-20.72.15-.32.31-.59.44-.89.07.02.14.04.21.07-1.82,8.3-3.64,16.61-5.48,24.96h21.03c6.3-34.81,12.59-69.57,18.88-104.42-1.23-.57-2.35-1.09-3.5-1.57-10.15-4.39-20.63-7.49-31.7-8.4ZM542.02,58.22c-1.06,10.94-3.77,21.54-6.78,32.1-3.04,10.6-8.61,19.66-16.21,27.5-4.41,4.57-9.49,8.26-15.5,10.51-3.42,1.29-6.94,1.98-10.61,1.95-2.02-.02-4.05.07-6-.55-8.44-2.57-13.89-8.14-16.47-16.49-1.04-3.46-1.33-7.06-1.09-10.65.48-7.21,2.69-13.92,5.67-20.45,1.13-2.46,2.39-4.91,3.74-7.3,1.65-2.87,3.81-5.37,6.14-7.69,8.61-8.6,18.88-14.17,30.81-16.58,8.58-1.68,17.06-1.23,25.35,1.71.4.16.79.3,1.33.5-.12,1.85-.2,3.64-.37,5.44Z"/>
  <path class="cls-1" d="M734.22,42.34c-8.68-7.39-18.87-11.06-30.19-11.74-8.08-.48-16.03.57-23.68,3.25-19.64,6.87-34.12,19.66-43.28,38.31-4.22,8.53-6.3,17.6-6.38,26.77.02,4.37.36,8.35,1.31,12.26,3.61,15.01,12.23,26.07,26.2,32.76,8.7,4.16,17.96,5.46,27.55,4.73,6.24-.46,12.31-1.87,18.15-4.09,10.4-3.91,19.39-9.97,27.1-17.95,7.69-7.92,13.4-17.06,16.8-27.57,3.28-10.08,4.15-20.36,1.83-30.78-2.3-10.33-7.37-19.04-15.41-25.96ZM720.94,105.85c-5.54,9.01-13.04,15.9-22.66,20.36-5.44,2.5-11.17,3.8-17.16,3.64-12.39-.34-22.48-7.71-26.22-19.97-1.42-4.64-1.76-9.39-1.26-14.22,1.26-11.77,6.37-21.66,14.51-30.1,5.24-5.46,11.4-9.6,18.54-12.22,5.08-1.87,10.34-2.77,15.75-2.21,11.51,1.23,19.46,7.23,23.72,18.02,1.55,3.94,2.1,8.05,2.13,12.4-.15,8.7-2.72,16.84-7.35,24.3Z"/>
  <path class="cls-1" d="M238.29,58.83c-.2-2.32-.42-4.62-1.09-6.85-2.53-8.42-7.75-14.42-15.92-17.79-3.85-1.59-7.86-2.37-11.99-2.62-5.2-.32-10.35.18-15.46,1.25-8.7,1.82-16.83,5.09-24.49,9.55-8.51,4.94-16.03,11.12-22.18,18.84-4.5,5.64-7.99,11.83-10.06,18.77-.89,2.96-1.38,5.96-1.8,9.01-.43,3.16-.96,6.3-1.15,9.51-.36,6.07.03,12.06,1.67,17.93,3.09,11.17,9.74,19.5,20.18,24.63,5.79,2.84,11.97,4.23,18.35,4.78,5.7.48,11.35.18,16.98-.59,6.54-.93,12.92-2.5,19.2-4.57,1.82-.62,3.62-1.25,5.46-1.89.82-7.03,1.64-13.97,2.48-21.07-.37.2-.59.32-.81.46-8.43,5.74-17.69,9.31-27.86,10.35-4.5.46-8.98.27-13.4-.84-4.93-1.28-9.24-3.57-12.7-7.33-3.45-3.73-5.45-8.23-6.56-13.15-.02-.11.04-.23.07-.39.42-.03.8-.07,1.21-.07,4.22-.2,8.46-.36,12.69-.62,7.35-.39,14.63-1.14,21.87-2.36,5.67-.98,11.25-2.25,16.69-4.12,5.35-1.84,10.4-4.18,14.97-7.55,6.89-5.1,11.34-11.79,13.06-20.25.86-4.33.98-8.69.59-13.04ZM216.19,70.36c-1.03,4.05-3.36,7.23-6.52,9.87-3.03,2.57-6.49,4.34-10.18,5.73-4.65,1.8-9.48,2.87-14.39,3.55-5.69.8-11.37,1.09-17.08.91-3.14-.11-6.26-.37-9.37-.57-.23,0-.45-.09-.82-.16.14-.52.24-.98.37-1.39,2.3-7.62,6.21-14.36,11.58-20.2,6.12-6.71,13.38-11.83,21.95-14.92,3.8-1.36,7.71-2.23,11.77-2.09,2.01.04,3.96.39,5.81,1.16,3.41,1.36,5.62,3.85,6.6,7.37.98,3.55,1.21,7.14.28,10.74Z"/>
  <path class="cls-1" d="M335.86,34.58c-4.31-1.8-8.83-2.75-13.49-3-5.53-.32-11.01.14-16.42,1.36-9.73,2.19-17.81,7.05-24.07,14.86-2.43,3.05-4.48,6.35-6.23,9.81-.11.23-.25.45-.37.68-.06-.04-.1-.07-.15-.09,1.23-7.62,2.46-15.22,3.71-22.93h-22.18c-6.3,36.69-12.59,73.34-18.9,110.06h21.55c.08-.3.17-.55.21-.8,1.32-7.72,2.58-15.47,3.95-23.16,1.36-7.58,3.05-15.08,5.29-22.45,2.6-8.6,5.93-16.93,10.68-24.62,5.43-8.78,12.72-15.58,21.98-20.2,5.48-2.73,11.28-4.23,17.47-3.78,2.21.16,4.3.7,6.29,1.69,2.31,1.16,3.92,2.98,4.88,5.37.53,1.39.82,2.82,1,4.28.43,3.66.11,7.33-.48,10.92-1.25,7.46-2.59,14.92-3.9,22.37-1.4,8-2.82,15.99-4.22,23.97-1.55,8.8-3.09,17.58-4.64,26.39-.02.25-.02.5-.05.8h21.89c.07-.3.14-.55.18-.8.93-5.03,1.88-10.05,2.82-15.08,1.54-8.28,3.07-16.54,4.63-24.79,1.46-7.87,2.91-15.72,4.39-23.59.92-4.82,1.85-9.67,1.97-14.63.12-4.98-.24-9.9-1.66-14.69-2.54-8.49-7.89-14.5-16.1-17.93Z"/>
  <path class="cls-1" d="M464.42,34.29h-1.18c-6.92,0-13.83,0-20.75-.02-.8,0-1.21.25-1.59.93-8.21,14.76-16.46,29.5-24.7,44.27-5.55,9.92-11.1,19.86-16.65,29.8-.16.3-.34.59-.52.87-.06-.03-.13-.05-.18-.07-5.53-25.05-11.07-50.07-16.61-75.12h-21.65c9.13,37.58,18.26,75.12,27.4,112.76h1.09c2.09,0,4.17-.05,6.26,0,.76.02,1.16-.23,1.55-.87,4.41-7.44,8.87-14.83,13.34-22.25,17.84-29.69,35.67-59.37,53.52-89.09.2-.36.4-.72.68-1.22Z"/>
  <path class="cls-1" d="M774.74,39.63h-15.87c-.18,1.09-.39,2.18-.62,3.35,1.14,0,2.09,0,3.09.02.99.02,1.98-.11,3.02.11-1.07,5.71-2.14,11.37-3.21,17.08h3.68c1.1-5.76,2.17-11.44,3.28-17.2,2.06-.04,4.01.02,5.96-.04.24-1.16.46-2.23.66-3.32Z"/>
</svg>