<?xml version="1.0" encoding="UTF-8"?>
<svg xmlns="http://www.w3.org/2000/svg" version="1.1" xmlns:xlink="http://www.w3.org/1999/xlink" viewBox="0 0 165 34">
  <defs>
    <style>
      .cls-1 {
        fill: #384bff;
        fill-rule: evenodd;
      }

      .cls-2 {
        fill: #fff;
      }

      .cls-3 {
        fill: none;
      }

      .cls-4 {
        clip-path: url(#clippath);
      }
    </style>
    <clipPath id="clippath">
      <rect class="cls-3" y="0" width="165" height="34"/>
    </clipPath>
  </defs>
  <!-- Generator: Adobe Illustrator 28.6.0, SVG Export Plug-In . SVG Version: 1.2.0 Build 709)  -->
  <g>
    <g id="Layer_1">
      <g class="cls-4">
        <g>
          <path class="cls-1" d="M1.4,20.1c1.8,1.8,4.7,1.8,6.5,0,1.8-1.8,1.8-4.8,0-6.6-1.8-1.8-4.7-1.8-6.5,0-1.8,1.8-1.8,4.8,0,6.6ZM19.9,25.7c-1.8-1.8-4.7-1.8-6.5,0-1.8,1.8-1.8,4.8,0,6.6,1.8,1.8,4.7,1.8,6.5,0,1.8-1.8,1.8-4.8,0-6.6ZM25.4,13.5c-1.8,1.8-1.8,4.8,0,6.6,1.8,1.8,4.7,1.8,6.5,0,1.8-1.8,1.8-4.8,0-6.6-1.8-1.8-4.7-1.8-6.5,0ZM13.4,1.4c-1.8,1.8-1.8,4.8,0,6.6,1.8,1.8,4.7,1.8,6.5,0,1.8-1.8,1.8-4.7,0-6.6,0,0,0,0,0,0-1.8-1.8-4.7-1.8-6.5,0ZM7.9,1.4c-.6-.6-1.3-1-2-1.2,0,0,0,0,0,0C5.5,0,5.1,0,4.7,0h0C2.2,0,.1,2.1.1,4.6H.1c0,2.2,1.4,4,3.4,4.5.4.1.8.2,1.2.2.8,0,1.6,0,2.3.2,2.7.6,4.3,2.2,4.9,5,.1.6.2,1.3.2,2,0,.1,0,.2,0,.3,0,.8,0,1.6-.2,2.3-.6,2.7-2.2,4.4-4.9,5-.7.1-1.5.2-2.3.2-1.2,0-2.3.5-3.1,1.2,0,0,0,0-.1.1-1.7,1.7-1.8,4.5-.2,6.3,0,0,.1.2.2.2.7.8,1.7,1.2,2.9,1.3h.6c2.4,0,4.4-2.1,4.4-4.6s0-.2,0-.3c0-.7,0-1.4.2-2,.6-2.7,2.2-4.4,4.9-5,.6-.1,1.3-.2,2-.2,0,0,0,0,0,0h0s0,0,0,0h0c0,0,.2,0,.2,0h-.2s.2,0,.2,0h.3s0,0,0,0c0,0-.1,0-.2,0h0s0,0-.1,0c.8,0,1.6,0,2.3.2,2.7.6,4.3,2.2,4.9,5,.1.7.2,1.5.2,2.3,0,1.2.5,2.4,1.3,3.2,0,0,0,0,0,0,.8.9,1.9,1.3,3,1.4,0,0,0,0,0,0h.5c1.1-.1,2.1-.6,2.9-1.3.9-.9,1.4-2.1,1.4-3.3,0-2.5-2-4.6-4.5-4.7,0,0,0,0,0,0-.8,0-1.6,0-2.3-.2-2.7-.6-4.3-2.2-4.9-5-.1-.7-.2-1.4-.2-2.2,0,0,0,0,0-.1,0-.8,0-1.6.2-2.3.6-2.7,2.2-4.4,4.9-5,.7-.1,1.5-.2,2.3-.2,1.2,0,2.3-.5,3.1-1.3,0,0,0,0,.1-.1,1.8-1.8,1.8-4.8,0-6.6,0,0,0,0,0,0,0,0,0,0,0,0C31,.5,29.9,0,28.6,0h0c-2.5,0-4.6,2.1-4.6,4.7s0,.1,0,.2c0,.8,0,1.5-.2,2.2-.6,2.7-2.2,4.4-4.9,5-.6.1-1.3.2-2,.2,0,0,0,0-.1,0,0,0,0,0,0,0,0,0,0,0-.1,0h0s0,0,0,0c0,0,0,0,0,0h0c0,0-.1,0-.2,0-.7,0-1.4,0-2-.2-2.7-.6-4.3-2.2-4.9-5-.1-.7-.2-1.5-.2-2.3,0-1.2-.5-2.4-1.3-3.2,0,0,0,0,0,0Z"/>
          <path class="cls-2" d="M55.4,31h-13.3c-.6,0-.9-.3-.9-.9V3.9c0-.6.3-.9.9-.9h13.3c.5,0,.8.3.8.9v3c0,.6-.3.9-.8.9h-8.5c-.3,0-.5.2-.5.5v5.7c0,.3.2.5.5.5h7c.6,0,.9.3.9.9v3c0,.6-.3.9-.9.9h-7c-.3,0-.5.2-.5.5v6.1c0,.3.2.5.5.5h8.5c.5,0,.8.3.8.9v3c0,.6-.3.9-.8.9Z"/>
          <path class="cls-2" d="M64.2,31h-4.3c-.7,0-.9-.3-.6-.9l5.3-10.3-5.3-9.9c-.3-.6-.1-.9.5-.9h4.3c.7,0,1.1.3,1.3.9l2.7,6.6h.2l2.3-6.6c.2-.6.6-.9,1.3-.9h4.2c.7,0,.9.3.5.9l-5.1,9.9,5.4,10.3c.1.3.2.5,0,.6,0,.2-.3.3-.5.3h-4.3c-.6,0-1-.3-1.3-.9l-2.7-6.6h-.2l-2.7,6.6c-.2.6-.6.9-1.3.9Z"/>
          <path class="cls-2" d="M80.7,14h-1.6c-.3,0-.6,0-.7-.2-.1-.1-.2-.3-.2-.7v-2.9c0-.6.3-.9.9-.9h1.6c.3,0,.4-.2.4-.5v-4c0-.6.3-.9.9-.9h3.4c.6,0,.9.3.9.9v4c0,.3.2.5.5.5h3.2c.6,0,.9.3.9.9v2.9c0,.3,0,.5-.2.7-.1.1-.3.2-.6.2h-3.2c-.3,0-.5.2-.5.5v9.4c0,.9.2,1.5.6,1.9.4.4,1,.6,1.9.6h1.6c.6,0,.9.3.9.9v2.9c0,.3,0,.5-.2.7-.1.1-.3.2-.7.2h-2.5c-2.1,0-3.8-.6-5-1.8-1.2-1.2-1.7-2.9-1.7-5.1v-9.6c0-.3-.1-.5-.4-.5Z"/>
          <path class="cls-2" d="M111.3,31h-9.2c-2.2,0-3.9-.6-5.1-1.8-1.2-1.2-1.8-2.9-1.8-5.2v-7.9c0-2.3.6-4,1.8-5.2,1.2-1.2,2.9-1.8,5.1-1.8h3.3c2.2,0,3.9.6,5.1,1.8,1.2,1.2,1.8,2.9,1.8,5.2v5.5c0,.6-.3.9-.9.9h-10.4c-.3,0-.5.2-.5.5v.9c0,.9.2,1.5.5,1.9.4.4,1,.6,1.9.6h8.4c.6,0,.9.3.9.9v2.8c0,.3,0,.5-.2.7-.1.1-.3.2-.7.2ZM100.9,18.7h5.7c.3,0,.5-.2.5-.5v-2.1c0-.9-.2-1.6-.5-1.9-.4-.4-1-.6-1.9-.6h-1.7c-.9,0-1.5.2-1.9.6-.4.4-.5,1-.5,1.9v2.1c0,.3.2.5.5.5Z"/>
          <path class="cls-2" d="M130.2,27.2v3c0,.3,0,.5-.2.7-.1.1-.4.2-.7.2h-6.7c-2.4,0-4.2-.6-5.5-1.8-1.3-1.2-1.9-2.9-1.9-5.2v-7.9c0-2.3.6-4,1.9-5.2,1.3-1.2,3.1-1.8,5.5-1.8h6.7c.6,0,.9.3.9.9v3c0,.3,0,.5-.2.7-.1.1-.4.2-.7.2h-5.8c-.9,0-1.6.2-2,.6-.4.4-.6,1-.6,1.9v7.4c0,.9.2,1.6.6,2,.4.4,1.1.6,2,.6h5.8c.6,0,.9.3.9.9Z"/>
          <path class="cls-2" d="M137.8,31h-3.7c-.6,0-.9-.3-.9-.9V1.9c0-.6.3-.9.9-.9h3.7c.6,0,.9.3.9.9v9.6h.2c.6-1.5,2-2.3,4.2-2.3h1.4c4.5,0,6.8,2.3,6.8,7v13.9c0,.6-.3.9-.9.9h-3.6c-.6,0-.9-.3-.9-.9v-13.7c0-.9-.2-1.6-.6-1.9-.4-.4-1-.6-1.9-.6h-1.6c-2,0-3,1.1-3,3.2v12.9c0,.6-.3.9-.9.9Z"/>
        </g>
      </g>
    </g>
  </g>
</svg>